<mxfile host="Electron" modified="2024-05-13T09:52:03.597Z" agent="Mozilla/5.0 (Windows NT 10.0; Win64; x64) AppleWebKit/537.36 (KHTML, like Gecko) draw.io/24.2.5 Chrome/120.0.6099.109 Electron/28.1.0 Safari/537.36" etag="rnSc-Fzf83yFex6TWpDA" version="24.2.5" type="device">
  <diagram id="C5RBs43oDa-KdzZeNtuy" name="Page-1">
    <mxGraphModel dx="1615" dy="955" grid="1" gridSize="10" guides="1" tooltips="1" connect="1" arrows="1" fold="1" page="1" pageScale="1" pageWidth="827" pageHeight="1169" math="0" shadow="0">
      <root>
        <mxCell id="WIyWlLk6GJQsqaUBKTNV-0" />
        <mxCell id="WIyWlLk6GJQsqaUBKTNV-1" parent="WIyWlLk6GJQsqaUBKTNV-0" />
        <mxCell id="21fjaD3239LamhyVdQgN-15" value="" style="edgeStyle=orthogonalEdgeStyle;rounded=0;orthogonalLoop=1;jettySize=auto;html=1;" parent="WIyWlLk6GJQsqaUBKTNV-1" source="21fjaD3239LamhyVdQgN-0" target="21fjaD3239LamhyVdQgN-2" edge="1">
          <mxGeometry relative="1" as="geometry">
            <Array as="points">
              <mxPoint x="320" y="150" />
              <mxPoint x="320" y="150" />
            </Array>
          </mxGeometry>
        </mxCell>
        <mxCell id="21fjaD3239LamhyVdQgN-0" value="START" style="ellipse;whiteSpace=wrap;html=1;" parent="WIyWlLk6GJQsqaUBKTNV-1" vertex="1">
          <mxGeometry x="260" y="40" width="120" height="80" as="geometry" />
        </mxCell>
        <mxCell id="21fjaD3239LamhyVdQgN-1" value="STOP" style="ellipse;whiteSpace=wrap;html=1;" parent="WIyWlLk6GJQsqaUBKTNV-1" vertex="1">
          <mxGeometry x="260" y="990" width="120" height="80" as="geometry" />
        </mxCell>
        <mxCell id="21fjaD3239LamhyVdQgN-4" value="" style="endArrow=classic;html=1;rounded=0;" parent="WIyWlLk6GJQsqaUBKTNV-1" source="21fjaD3239LamhyVdQgN-2" edge="1">
          <mxGeometry width="50" height="50" relative="1" as="geometry">
            <mxPoint x="319.5" y="120" as="sourcePoint" />
            <mxPoint x="320" y="170" as="targetPoint" />
            <Array as="points" />
          </mxGeometry>
        </mxCell>
        <mxCell id="21fjaD3239LamhyVdQgN-6" value="Kávé kapszula vásárlása" style="rounded=0;whiteSpace=wrap;html=1;" parent="WIyWlLk6GJQsqaUBKTNV-1" vertex="1">
          <mxGeometry x="460" y="180" width="120" height="40" as="geometry" />
        </mxCell>
        <mxCell id="21fjaD3239LamhyVdQgN-14" value="" style="edgeStyle=orthogonalEdgeStyle;rounded=0;orthogonalLoop=1;jettySize=auto;html=1;" parent="WIyWlLk6GJQsqaUBKTNV-1" source="21fjaD3239LamhyVdQgN-2" target="21fjaD3239LamhyVdQgN-6" edge="1">
          <mxGeometry relative="1" as="geometry">
            <Array as="points">
              <mxPoint x="440" y="200" />
              <mxPoint x="440" y="200" />
            </Array>
          </mxGeometry>
        </mxCell>
        <mxCell id="21fjaD3239LamhyVdQgN-2" value="Van-e kávé kapszula?" style="rhombus;whiteSpace=wrap;html=1;" parent="WIyWlLk6GJQsqaUBKTNV-1" vertex="1">
          <mxGeometry x="260" y="170" width="120" height="80" as="geometry" />
        </mxCell>
        <mxCell id="21fjaD3239LamhyVdQgN-10" style="edgeStyle=orthogonalEdgeStyle;rounded=0;orthogonalLoop=1;jettySize=auto;html=1;exitX=0.5;exitY=1;exitDx=0;exitDy=0;" parent="WIyWlLk6GJQsqaUBKTNV-1" source="21fjaD3239LamhyVdQgN-2" target="21fjaD3239LamhyVdQgN-2" edge="1">
          <mxGeometry relative="1" as="geometry" />
        </mxCell>
        <mxCell id="21fjaD3239LamhyVdQgN-22" value="" style="endArrow=classic;html=1;rounded=0;exitX=0.5;exitY=1;exitDx=0;exitDy=0;entryX=1.167;entryY=0.694;entryDx=0;entryDy=0;entryPerimeter=0;" parent="WIyWlLk6GJQsqaUBKTNV-1" source="21fjaD3239LamhyVdQgN-6" target="21fjaD3239LamhyVdQgN-26" edge="1">
          <mxGeometry width="50" height="50" relative="1" as="geometry">
            <mxPoint x="517.5000000000001" y="220.00000000000006" as="sourcePoint" />
            <mxPoint x="337.5" y="280" as="targetPoint" />
            <Array as="points">
              <mxPoint x="520" y="280" />
            </Array>
          </mxGeometry>
        </mxCell>
        <mxCell id="5m6IoP7JkSzpQee1hl3U-2" value="" style="edgeStyle=orthogonalEdgeStyle;rounded=0;orthogonalLoop=1;jettySize=auto;html=1;" parent="WIyWlLk6GJQsqaUBKTNV-1" edge="1">
          <mxGeometry relative="1" as="geometry">
            <mxPoint x="319.79" y="260" as="sourcePoint" />
            <mxPoint x="319.79" y="317.5" as="targetPoint" />
          </mxGeometry>
        </mxCell>
        <mxCell id="21fjaD3239LamhyVdQgN-26" value="" style="ellipse;whiteSpace=wrap;html=1;aspect=fixed;" parent="WIyWlLk6GJQsqaUBKTNV-1" vertex="1">
          <mxGeometry x="312.5" y="270" width="15" height="15" as="geometry" />
        </mxCell>
        <mxCell id="5m6IoP7JkSzpQee1hl3U-0" value="" style="endArrow=classic;html=1;rounded=0;entryX=0.5;entryY=0;entryDx=0;entryDy=0;" parent="WIyWlLk6GJQsqaUBKTNV-1" target="21fjaD3239LamhyVdQgN-26" edge="1">
          <mxGeometry width="50" height="50" relative="1" as="geometry">
            <mxPoint x="320" y="250" as="sourcePoint" />
            <mxPoint x="430" y="250" as="targetPoint" />
          </mxGeometry>
        </mxCell>
        <mxCell id="5m6IoP7JkSzpQee1hl3U-17" style="edgeStyle=orthogonalEdgeStyle;rounded=0;orthogonalLoop=1;jettySize=auto;html=1;exitX=0.5;exitY=1;exitDx=0;exitDy=0;entryX=0.5;entryY=0;entryDx=0;entryDy=0;" parent="WIyWlLk6GJQsqaUBKTNV-1" source="xd4IatWYd4CiP51wusXg-3" target="5m6IoP7JkSzpQee1hl3U-7" edge="1">
          <mxGeometry relative="1" as="geometry" />
        </mxCell>
        <mxCell id="5m6IoP7JkSzpQee1hl3U-4" value="Kávé kapszula vásárlása" style="rounded=0;whiteSpace=wrap;html=1;" parent="WIyWlLk6GJQsqaUBKTNV-1" vertex="1">
          <mxGeometry x="260" y="440" width="120" height="40" as="geometry" />
        </mxCell>
        <mxCell id="5m6IoP7JkSzpQee1hl3U-15" style="edgeStyle=orthogonalEdgeStyle;rounded=0;orthogonalLoop=1;jettySize=auto;html=1;exitX=0.5;exitY=1;exitDx=0;exitDy=0;entryX=0.5;entryY=0;entryDx=0;entryDy=0;" parent="WIyWlLk6GJQsqaUBKTNV-1" source="5m6IoP7JkSzpQee1hl3U-5" target="5m6IoP7JkSzpQee1hl3U-4" edge="1">
          <mxGeometry relative="1" as="geometry" />
        </mxCell>
        <mxCell id="5m6IoP7JkSzpQee1hl3U-5" value="Kávé kapszula vásárlása" style="rounded=0;whiteSpace=wrap;html=1;" parent="WIyWlLk6GJQsqaUBKTNV-1" vertex="1">
          <mxGeometry x="260" y="380" width="120" height="40" as="geometry" />
        </mxCell>
        <mxCell id="5m6IoP7JkSzpQee1hl3U-12" style="edgeStyle=orthogonalEdgeStyle;rounded=0;orthogonalLoop=1;jettySize=auto;html=1;entryX=0.5;entryY=0;entryDx=0;entryDy=0;" parent="WIyWlLk6GJQsqaUBKTNV-1" source="5m6IoP7JkSzpQee1hl3U-6" target="5m6IoP7JkSzpQee1hl3U-5" edge="1">
          <mxGeometry relative="1" as="geometry" />
        </mxCell>
        <mxCell id="5m6IoP7JkSzpQee1hl3U-6" value="Kávé kapszula vásárlása" style="rounded=0;whiteSpace=wrap;html=1;" parent="WIyWlLk6GJQsqaUBKTNV-1" vertex="1">
          <mxGeometry x="260" y="320" width="120" height="40" as="geometry" />
        </mxCell>
        <mxCell id="g2wtnyzpPrb5sZIEy6jY-2" value="" style="edgeStyle=orthogonalEdgeStyle;rounded=0;orthogonalLoop=1;jettySize=auto;html=1;" edge="1" parent="WIyWlLk6GJQsqaUBKTNV-1" source="5m6IoP7JkSzpQee1hl3U-8" target="5m6IoP7JkSzpQee1hl3U-9">
          <mxGeometry relative="1" as="geometry" />
        </mxCell>
        <mxCell id="5m6IoP7JkSzpQee1hl3U-8" value="Kávé kapszula vásárlása" style="rounded=0;whiteSpace=wrap;html=1;" parent="WIyWlLk6GJQsqaUBKTNV-1" vertex="1">
          <mxGeometry x="260" y="760" width="120" height="40" as="geometry" />
        </mxCell>
        <mxCell id="g2wtnyzpPrb5sZIEy6jY-3" value="" style="edgeStyle=orthogonalEdgeStyle;rounded=0;orthogonalLoop=1;jettySize=auto;html=1;" edge="1" parent="WIyWlLk6GJQsqaUBKTNV-1" source="5m6IoP7JkSzpQee1hl3U-9" target="21fjaD3239LamhyVdQgN-1">
          <mxGeometry relative="1" as="geometry" />
        </mxCell>
        <mxCell id="5m6IoP7JkSzpQee1hl3U-9" value="Kávé kapszula vásárlása" style="rounded=0;whiteSpace=wrap;html=1;" parent="WIyWlLk6GJQsqaUBKTNV-1" vertex="1">
          <mxGeometry x="260" y="880" width="120" height="40" as="geometry" />
        </mxCell>
        <mxCell id="g2wtnyzpPrb5sZIEy6jY-1" value="" style="edgeStyle=orthogonalEdgeStyle;rounded=0;orthogonalLoop=1;jettySize=auto;html=1;" edge="1" parent="WIyWlLk6GJQsqaUBKTNV-1" source="5m6IoP7JkSzpQee1hl3U-11" target="5m6IoP7JkSzpQee1hl3U-8">
          <mxGeometry relative="1" as="geometry" />
        </mxCell>
        <mxCell id="5m6IoP7JkSzpQee1hl3U-11" value="Elkészült a kávé?" style="rhombus;whiteSpace=wrap;html=1;" parent="WIyWlLk6GJQsqaUBKTNV-1" vertex="1">
          <mxGeometry x="260" y="640" width="120" height="80" as="geometry" />
        </mxCell>
        <mxCell id="5m6IoP7JkSzpQee1hl3U-21" value="" style="edgeStyle=orthogonalEdgeStyle;rounded=0;orthogonalLoop=1;jettySize=auto;html=1;" parent="WIyWlLk6GJQsqaUBKTNV-1" source="5m6IoP7JkSzpQee1hl3U-7" target="5m6IoP7JkSzpQee1hl3U-11" edge="1">
          <mxGeometry relative="1" as="geometry" />
        </mxCell>
        <mxCell id="xd4IatWYd4CiP51wusXg-6" style="edgeStyle=orthogonalEdgeStyle;rounded=0;orthogonalLoop=1;jettySize=auto;html=1;entryX=1;entryY=0.5;entryDx=0;entryDy=0;exitX=1;exitY=0.5;exitDx=0;exitDy=0;" parent="WIyWlLk6GJQsqaUBKTNV-1" source="5m6IoP7JkSzpQee1hl3U-11" target="xd4IatWYd4CiP51wusXg-3" edge="1">
          <mxGeometry relative="1" as="geometry">
            <mxPoint x="570" y="530" as="targetPoint" />
            <Array as="points">
              <mxPoint x="571" y="680" />
              <mxPoint x="571" y="518" />
            </Array>
          </mxGeometry>
        </mxCell>
        <mxCell id="5m6IoP7JkSzpQee1hl3U-7" value="Várj!" style="rounded=0;whiteSpace=wrap;html=1;" parent="WIyWlLk6GJQsqaUBKTNV-1" vertex="1">
          <mxGeometry x="260" y="570" width="120" height="40" as="geometry" />
        </mxCell>
        <mxCell id="xd4IatWYd4CiP51wusXg-4" value="" style="edgeStyle=orthogonalEdgeStyle;rounded=0;orthogonalLoop=1;jettySize=auto;html=1;exitX=0.5;exitY=1;exitDx=0;exitDy=0;entryX=0.5;entryY=0;entryDx=0;entryDy=0;" parent="WIyWlLk6GJQsqaUBKTNV-1" source="5m6IoP7JkSzpQee1hl3U-4" target="xd4IatWYd4CiP51wusXg-3" edge="1">
          <mxGeometry relative="1" as="geometry">
            <mxPoint x="320" y="480" as="sourcePoint" />
            <mxPoint x="320" y="570" as="targetPoint" />
          </mxGeometry>
        </mxCell>
        <mxCell id="xd4IatWYd4CiP51wusXg-3" value="" style="ellipse;whiteSpace=wrap;html=1;aspect=fixed;" parent="WIyWlLk6GJQsqaUBKTNV-1" vertex="1">
          <mxGeometry x="312.5" y="510" width="15" height="15" as="geometry" />
        </mxCell>
      </root>
    </mxGraphModel>
  </diagram>
</mxfile>
